<svg width="525" height="204" viewBox="0 0 525 204" fill="none" xmlns="http://www.w3.org/2000/svg">
<path d="M148.093 117.077H95.6484V100.22H155.129L170.94 62.3426H51.3307V117.077H8.5V151.546H51.3307V194.917H95.6484V151.546H133.705L148.093 117.077Z" fill="white"/>
<path d="M502.788 63.2946H505.032V69.3213H506.028V63.2946H508.271V62.3426H502.788V63.2946ZM516.88 62.3426V69.3213H515.905V63.9746L513.413 67.7573H513.277L510.809 63.9746V69.3213H509.812V62.3426H510.876L513.368 66.1706L515.837 62.3426H516.88Z" fill="white"/>
<path d="M425.42 144.162H490.192V112.153H425.42V99.8417H494.927V98.7064V62.3426H250.844L266.536 99.8417H296.043V194.917H340.36V99.8417H381.861V194.917H495.873V158.553H425.42V144.162Z" fill="white"/>
<path d="M198.913 145.736L211.033 113.539L223.155 145.736H198.913ZM211.413 8.49996L133.599 194.917C149.937 191.307 166.691 188.807 183.781 187.508L187.739 177.174H234.139L238.184 187.448C255.572 188.729 272.613 191.248 289.227 194.917L233.383 61.4559L211.413 8.49996Z" fill="white"/>
<path d="M261.628 35.0787C263.549 35.0787 264.829 34.2134 264.829 32.6134V32.5494C264.829 30.9174 263.645 30.084 261.661 30.084H259.612V35.0787H261.628ZM252.124 24.1H262.205C268.157 24.1 272.223 26.756 272.223 32.0694V32.1334C272.223 37.5414 268.093 40.4214 262.045 40.4214H259.612V46.5027H252.124V24.1Z" fill="white"/>
<path d="M292.605 35.3653V35.3027C292.605 32.6453 290.78 30.2453 287.9 30.2453C285.053 30.2453 283.26 32.6133 283.26 35.2373V35.3027C283.26 37.9587 285.084 40.3573 287.964 40.3573C290.813 40.3573 292.605 37.9893 292.605 35.3653ZM275.708 35.3653V35.3027C275.708 28.8053 281.052 23.6213 287.964 23.6213C294.877 23.6213 300.159 28.7413 300.159 35.2373V35.3027C300.159 41.7987 294.813 46.9827 287.9 46.9827C280.988 46.9827 275.708 41.8627 275.708 35.3653Z" fill="white"/>
<path d="M302.044 24.0999H309.885L313.053 34.8546L316.668 24.0359H323.133L326.749 34.8546L329.919 24.0999H337.631L330.301 46.6626H323.775L319.836 35.5266L315.9 46.6626H309.372L302.044 24.0999Z" fill="white"/>
<path d="M341.309 24.1H360.415V30.2454H348.669V32.5174H359.615V37.9254H348.669V40.3574H360.575V46.5027H341.309V24.1Z" fill="white"/>
<path d="M375.711 34.7574C377.501 34.7574 378.591 33.9574 378.591 32.5814V32.5174C378.591 31.076 377.471 30.3734 375.741 30.3734H372.477V34.7574H375.711ZM364.989 24.1H375.935C379.903 24.1 382.431 25.092 384 26.6614C385.343 28.0054 386.048 29.6694 386.048 31.9747V32.0374C386.048 35.3027 384.351 37.5747 381.631 38.8854L386.847 46.5027H378.303L374.077 40.1014H372.477V46.5027H364.989V24.1Z" fill="white"/>
<path d="M390.269 24.1H409.375V30.2454H397.629V32.5174H408.575V37.9254H397.629V40.3574H409.535V46.5027H390.269V24.1Z" fill="white"/>
<path d="M421.437 30.6294V39.9747H422.685C426.111 39.9747 428.319 38.5667 428.319 35.3334V35.2694C428.319 32.0374 426.111 30.6294 422.685 30.6294H421.437ZM413.948 24.1H422.525C431.423 24.1 435.871 28.4854 435.871 35.1094V35.1734C435.871 41.7987 431.327 46.5027 422.269 46.5027H413.948V24.1Z" fill="white"/>
<path d="M460.543 37.5107H456.767V40.8387H460.511C462.143 40.8387 462.975 40.1667 462.975 39.2054V39.1414C462.975 38.1827 462.175 37.5107 460.543 37.5107ZM462.399 31.3C462.399 30.308 461.599 29.7654 459.999 29.7654H456.767V32.9014H460.031C461.631 32.9014 462.399 32.3574 462.399 31.3654V31.3ZM449.469 24.1H462.015C465.119 24.1 467.071 24.8054 468.384 26.1174C469.183 26.9174 469.76 28.0694 469.76 29.6054V29.6694C469.76 32.3254 468.16 33.9574 465.759 34.7894C468.639 35.6214 470.496 37.1574 470.496 40.2307V40.2947C470.496 43.8787 467.552 46.5027 461.887 46.5027H449.469V24.1Z" fill="white"/>
<path d="M480.223 38.5667L471.775 24.1H480.159L484 31.4614L487.872 24.1H496.16L487.712 38.4694V46.5027H480.223V38.5667Z" fill="white"/>
</svg>
